<svg width="16" height="17" viewBox="0 0 16 17" fill="none" xmlns="http://www.w3.org/2000/svg">
<path d="M7.99992 1.8335C11.6818 1.8335 14.6666 4.81826 14.6666 8.50016C14.6666 12.182 11.6818 15.1668 7.99992 15.1668C6.86525 15.1668 5.79675 14.8834 4.86145 14.3834L1.33325 15.1668L2.11745 11.64C1.617 10.7044 1.33325 9.63536 1.33325 8.50016C1.33325 4.81826 4.31802 1.8335 7.99992 1.8335ZM7.99992 3.16683C5.0544 3.16683 2.66659 5.55464 2.66659 8.50016C2.66659 9.38996 2.88367 10.2456 3.29317 11.0111L3.52626 11.4469L3.08955 13.411L5.05451 12.9747L5.49004 13.2075C6.25535 13.6166 7.11052 13.8335 7.99992 13.8335C10.9455 13.8335 13.3333 11.4457 13.3333 8.50016C13.3333 5.55464 10.9455 3.16683 7.99992 3.16683ZM8.66658 5.16683V8.50016H11.3333V9.8335H7.33325V5.16683H8.66658Z" fill="#EBEBEB"/>
</svg>
