<svg width="84" height="80" viewBox="0 0 84 80" fill="none" xmlns="http://www.w3.org/2000/svg">
<g filter="url(#filter0_d_1253_2935)">
<path d="M40.3211 0.500353C39.3301 0.853087 38.1375 2.11285 37.7512 3.17106C36.4578 6.81598 39.8844 10.2761 43.5797 9.01637C44.6883 8.63004 45.8977 7.42066 46.284 6.27848C46.8215 4.66598 46.4016 2.76793 45.2594 1.54176C44.1676 0.399571 41.9168 -0.087538 40.3211 0.500353Z" fill="#FFC60B"/>
<path d="M40.9418 14.3242C39.5309 14.6769 38.4391 15.4664 37.3305 16.9277C36.541 17.9523 29.4023 26.8882 27.4707 29.2398C26.2781 30.6843 27.0508 30.6843 21.1719 29.2398C16.0656 27.9968 15.6793 27.9464 14.134 28.4167C11.9 29.1054 10.4219 31.121 10.4219 33.5398C10.4219 34.3628 10.7242 35.673 11.7824 39.3683C12.5215 41.9886 13.966 47.0781 14.9906 50.6894C16.0152 54.2839 16.9895 57.5089 17.1574 57.8449C17.5605 58.6511 18.4844 59.4406 19.2738 59.6589C20.1641 59.9109 63.8359 59.9109 64.7262 59.6589C65.5324 59.4406 66.557 58.5335 66.9098 57.7105C67.0777 57.3578 68.4383 52.7218 69.95 47.414C71.4617 42.1062 72.9062 37.0839 73.1582 36.2609C74.2332 32.7671 73.3262 30.0628 70.6723 28.7863C68.8414 27.9128 68.4887 27.9296 63.3152 29.2062C60.7789 29.8109 58.5281 30.3652 58.293 30.3988C57.9066 30.466 57.4363 29.9453 53.5898 25.1246C51.2383 22.1851 49.2395 19.6992 49.1387 19.5984C49.0547 19.4976 48.8027 19.1953 48.6012 18.9265C46.5855 16.2894 45.7289 15.3992 44.6875 14.8617C43.4781 14.257 42.0336 14.0554 40.9418 14.3242Z" fill="#FFC60B"/>
<path d="M6.81055 15.9367C5.21484 16.743 4.375 18.1539 4.375 20.0016C4.3918 22.5883 6.20586 24.4359 8.74219 24.4695C10.2203 24.4863 11.2113 24.0832 12.152 23.0754C13.8316 21.2781 13.8148 18.6074 12.1184 16.7766C10.9426 15.4832 8.47344 15.0969 6.81055 15.9367Z" fill="#FFC60B"/>
<path d="M73.1422 15.9031C70.4882 17.146 69.766 20.6902 71.7312 22.941C73.3605 24.7886 75.964 25.0238 77.9797 23.5121C80.1465 21.8828 80.2136 18.221 78.114 16.5246C77.1398 15.7519 76.4343 15.5 75.141 15.5C74.3011 15.5 73.7804 15.6007 73.1422 15.9031Z" fill="#FFC60B"/>
<path d="M19.2234 65.8234C17.9301 66.2937 16.8047 67.8726 16.8047 69.25C16.8047 70.5433 17.7117 71.9375 18.9547 72.5422C19.5426 72.8445 20.5336 72.8613 41.6473 72.9117C66.2211 72.9621 64.8941 73.0125 66.0699 71.8367C67.5313 70.3754 67.4977 68.0574 65.9691 66.5793C64.8773 65.5043 66.1539 65.5547 41.9328 65.5715C23.0531 65.5715 19.8113 65.6219 19.2234 65.8234Z" fill="#FFC60B"/>
</g>
<defs>
<filter id="filter0_d_1253_2935" x="0.375" y="0.249878" width="83.2734" height="80.6823" filterUnits="userSpaceOnUse" color-interpolation-filters="sRGB">
<feFlood flood-opacity="0" result="BackgroundImageFix"/>
<feColorMatrix in="SourceAlpha" type="matrix" values="0 0 0 0 0 0 0 0 0 0 0 0 0 0 0 0 0 0 127 0" result="hardAlpha"/>
<feOffset dy="4"/>
<feGaussianBlur stdDeviation="2"/>
<feComposite in2="hardAlpha" operator="out"/>
<feColorMatrix type="matrix" values="0 0 0 0 0 0 0 0 0 0 0 0 0 0 0 0 0 0 0.25 0"/>
<feBlend mode="normal" in2="BackgroundImageFix" result="effect1_dropShadow_1253_2935"/>
<feBlend mode="normal" in="SourceGraphic" in2="effect1_dropShadow_1253_2935" result="shape"/>
</filter>
</defs>
</svg>
