<svg width="16" height="17" viewBox="0 0 16 17" fill="none" xmlns="http://www.w3.org/2000/svg">
<path d="M5.79083 3.16689L7.52859 1.42915C7.78892 1.1688 8.21105 1.1688 8.47139 1.42915L10.2091 3.16689H12.6667C13.0349 3.16689 13.3333 3.46537 13.3333 3.83355V6.29108L15.0711 8.02883C15.3314 8.28917 15.3314 8.7113 15.0711 8.97163L13.3333 10.7094V13.1669C13.3333 13.5351 13.0349 13.8336 12.6667 13.8336H10.2091L8.47139 15.5713C8.21105 15.8316 7.78892 15.8316 7.52859 15.5713L5.79083 13.8336H3.33331C2.96512 13.8336 2.66664 13.5351 2.66664 13.1669V10.7094L0.928908 8.97163C0.668554 8.7113 0.668554 8.28917 0.928908 8.02883L2.66664 6.29108V3.83355C2.66664 3.46537 2.96512 3.16689 3.33331 3.16689H5.79083ZM3.99997 4.50022V6.84337L2.34312 8.50023L3.99997 10.1571V12.5002H6.34312L7.99999 14.1571L9.65685 12.5002H12V10.1571L13.6569 8.50023L12 6.84337V4.50022H9.65685L7.99999 2.84337L6.34312 4.50022H3.99997ZM7.99999 11.1669C6.52721 11.1669 5.33331 9.97297 5.33331 8.50023C5.33331 7.02746 6.52721 5.83355 7.99999 5.83355C9.47272 5.83355 10.6667 7.02746 10.6667 8.50023C10.6667 9.97297 9.47272 11.1669 7.99999 11.1669ZM7.99999 9.83356C8.73639 9.83356 9.33332 9.23663 9.33332 8.50023C9.33332 7.76383 8.73639 7.1669 7.99999 7.1669C7.26359 7.1669 6.66665 7.76383 6.66665 8.50023C6.66665 9.23663 7.26359 9.83356 7.99999 9.83356Z" fill="#EBEBEB"/>
</svg>
