<svg width="18" height="18" viewBox="0 0 18 18" fill="none" xmlns="http://www.w3.org/2000/svg">
<path d="M9 2.25C5.27231 2.25 2.25 5.27231 2.25 9C2.25 12.7277 5.27231 15.75 9 15.75C12.7277 15.75 15.75 12.7277 15.75 9C15.75 5.27231 12.7277 2.25 9 2.25ZM9.39769 9.39769C9.25425 9.54113 9.08719 9.5625 9 9.5625C8.91281 9.5625 8.74575 9.54113 8.60231 9.39769C8.45888 9.25425 8.4375 9.08719 8.4375 9C8.4375 8.91281 8.45888 8.74575 8.60231 8.60231C8.88694 8.31769 10.4366 7.15444 11.9677 6.03281C10.8472 7.56225 9.68456 9.11081 9.39769 9.39769ZM13.5664 5.74819C14.1216 6.52444 14.4967 7.43794 14.5963 8.4375H11.5858C12.2873 7.50488 13.0714 6.43106 13.5664 5.74819ZM12.2518 4.43362C11.5695 4.92919 10.4951 5.71331 9.5625 6.41419V3.40369C10.5621 3.50325 11.4756 3.87844 12.2518 4.43362ZM8.4375 3.40369V7.27706C8.14331 7.50994 7.91494 7.69894 7.80694 7.80694C7.623 7.99087 7.49588 8.208 7.41488 8.4375H3.40369C3.66806 5.78419 5.78419 3.66806 8.4375 3.40369ZM3.40369 9.5625H7.41488C7.49588 9.79256 7.623 10.0091 7.80694 10.1931C7.99087 10.377 8.208 10.5041 8.4375 10.5851V14.5963C5.78419 14.3319 3.66806 12.2158 3.40369 9.5625ZM9.5625 14.5963V10.5851C9.79256 10.5041 10.0091 10.377 10.1931 10.1931C10.3022 10.0839 10.4912 9.85613 10.7235 9.5625H14.5963C14.3319 12.2158 12.2158 14.3319 9.5625 14.5963Z" fill="white"/>
</svg>
