<svg width="19" height="18" viewBox="0 0 19 18" fill="none" xmlns="http://www.w3.org/2000/svg">
<path d="M11 10.689V16.5H3.5C3.5 13.1863 6.18629 10.5 9.5 10.5C10.018 10.5 10.5206 10.5656 11 10.689ZM9.5 9.75C7.01375 9.75 5 7.73625 5 5.25C5 2.76375 7.01375 0.75 9.5 0.75C11.9862 0.75 14 2.76375 14 5.25C14 7.73625 11.9862 9.75 9.5 9.75ZM14.75 12.4394L16.341 10.8484L17.4016 11.909L15.8106 13.5L17.4016 15.091L16.341 16.1516L14.75 14.5606L13.159 16.1516L12.0984 15.091L13.6894 13.5L12.0984 11.909L13.159 10.8484L14.75 12.4394Z" fill="#F1F1F1"/>
</svg>
