<svg width="16" height="17" viewBox="0 0 16 17" fill="none" xmlns="http://www.w3.org/2000/svg">
<path d="M2.66675 15.1665C2.66675 12.221 5.05456 9.83317 8.00008 9.83317C10.9456 9.83317 13.3334 12.221 13.3334 15.1665H12.0001C12.0001 12.9574 10.2092 11.1665 8.00008 11.1665C5.79094 11.1665 4.00008 12.9574 4.00008 15.1665H2.66675ZM8.00008 9.1665C5.79008 9.1665 4.00008 7.3765 4.00008 5.1665C4.00008 2.9565 5.79008 1.1665 8.00008 1.1665C10.2101 1.1665 12.0001 2.9565 12.0001 5.1665C12.0001 7.3765 10.2101 9.1665 8.00008 9.1665ZM8.00008 7.83317C9.47341 7.83317 10.6667 6.63984 10.6667 5.1665C10.6667 3.69317 9.47341 2.49984 8.00008 2.49984C6.52675 2.49984 5.33341 3.69317 5.33341 5.1665C5.33341 6.63984 6.52675 7.83317 8.00008 7.83317Z" fill="#EBEBEB"/>
</svg>
